<?xml version="1.0" encoding="utf-8"?>
<!-- Generator: Adobe Illustrator 24.3.0, SVG Export Plug-In . SVG Version: 6.00 Build 0)  -->
<svg version="1.1" id="Layer_1" xmlns="http://www.w3.org/2000/svg" xmlns:xlink="http://www.w3.org/1999/xlink" x="0px" y="0px"
	 viewBox="0 0 14.6 15.8" style="enable-background:new 0 0 14.6 15.8;" xml:space="preserve">
<style type="text/css">
	.st0{fill:#FFFFFF;}
</style>
<desc>Created with Sketch.</desc>
<g id="FOOTER" transform="translate(-926.000000, -185.000000)">
	<g id="RIGHT">
		<g transform="translate(585.000000, 99.000000)">
			<g id="Coluna-Icones" transform="translate(341.000000, 86.000000)">
				<g id="Instagram_footer">
					<g id="Shape">
						<path class="st0" d="M10.5,3.9c-0.4,0-0.7,0.3-0.7,0.7c0,0.4,0.3,0.7,0.7,0.7c0.4,0,0.7-0.3,0.7-0.7
							C11.3,4.3,10.9,3.9,10.5,3.9z"/>
						<path class="st0" d="M7.4,4.8c-1.7,0-3,1.4-3,3s1.4,3,3,3s3-1.4,3-3c0-0.8-0.3-1.6-0.9-2.1C9,5.1,8.2,4.8,7.4,4.8z M7.4,9.8
							c-0.8,0-1.5-0.5-1.8-1.2S5.4,7,6,6.4S7.4,5.7,8.1,6c0.7,0.3,1.2,1,1.2,1.8C9.4,8.9,8.5,9.8,7.4,9.8z"/>
						<path class="st0" d="M13.3,5.4c0-0.5-0.1-1-0.3-1.4c-0.1-0.4-0.4-0.8-0.7-1c-0.3-0.3-0.7-0.5-1-0.7C10.8,2,10.3,1.9,9.8,1.9
							c-0.6,0-0.8,0-2.4,0s-1.8,0-2.4,0C4.5,1.9,4,2,3.5,2.2C2.7,2.5,2.1,3.1,1.8,3.9C1.6,4.4,1.5,4.9,1.5,5.4c0,0.6,0,0.8,0,2.4
							s0,1.8,0,2.4c0,0.5,0.1,1,0.3,1.4c0.3,0.8,0.9,1.4,1.7,1.7C4,13.5,4.5,13.6,5,13.6c0.6,0,0.8,0,2.4,0s1.8,0,2.4,0
							c0.5,0,1-0.1,1.4-0.3c0.8-0.3,1.4-0.9,1.7-1.7c0.2-0.5,0.3-0.9,0.3-1.4c0-0.6,0-0.8,0-2.4S13.3,6,13.3,5.4z M12.2,10.2
							c0,0.4-0.1,0.7-0.2,1.1c-0.2,0.5-0.6,0.9-1.1,1.1c-0.4,0.1-0.7,0.2-1.1,0.2c-0.6,0-0.8,0-2.4,0s-1.8,0-2.4,0
							c-0.4,0-0.7-0.1-1.1-0.2c-0.3-0.1-0.5-0.2-0.7-0.4c-0.2-0.2-0.3-0.4-0.4-0.7c-0.1-0.4-0.2-0.7-0.2-1.1c0-0.6,0-0.8,0-2.4
							s0-1.8,0-2.4c0-0.4,0.1-0.7,0.2-1.1C2.9,4.1,3,3.8,3.2,3.6c0.2-0.2,0.4-0.3,0.7-0.4C4.3,3.1,4.6,3,5,3c0.6,0,0.8,0,2.4,0
							s1.8,0,2.4,0c0.4,0,0.7,0.1,1.1,0.2c0.5,0.2,0.9,0.6,1.1,1.1c0.1,0.4,0.2,0.7,0.2,1.1c0,0.6,0,0.8,0,2.4S12.2,9.6,12.2,10.2
							L12.2,10.2z"/>
					</g>
				</g>
			</g>
		</g>
	</g>
</g>
</svg>
