<?xml version="1.0" encoding="utf-8"?>
<!-- Generator: Adobe Illustrator 24.3.0, SVG Export Plug-In . SVG Version: 6.00 Build 0)  -->
<svg version="1.1" id="Layer_1" xmlns="http://www.w3.org/2000/svg" xmlns:xlink="http://www.w3.org/1999/xlink" x="0px" y="0px"
	 viewBox="0 0 17.1 15.8" style="enable-background:new 0 0 17.1 15.8;" xml:space="preserve">
<style type="text/css">
	.st0{fill:#FFFFFF;}
</style>
<desc>Created with Sketch.</desc>
<g id="FOOTER" transform="translate(-956.000000, -185.000000)">
	<g id="RIGHT">
		<g transform="translate(585.000000, 99.000000)">
			<g id="Coluna-Icones" transform="translate(341.000000, 86.000000)">
				<g id="Linkedin_footer" transform="translate(30.000000, 0.000000)">
					<path class="st0" d="M5.2,13.7H2.5V5.6h2.7V13.7z M3.9,4.5c-0.4,0-0.8-0.1-1.1-0.4c-0.3-0.3-0.5-0.6-0.4-1
						c0-0.8,0.6-1.4,1.5-1.4c0.4,0,0.8,0.1,1.1,0.4s0.4,0.6,0.4,1C5.4,3.8,4.8,4.5,3.9,4.5z M14.9,13.7h-2.7V9.3
						c0-1.1-0.4-1.8-1.4-1.8c-0.6,0-1.2,0.4-1.4,1C9.4,8.7,9.4,8.9,9.4,9.1v4.5H6.7c0,0,0-7.3,0-8.1h2.7v1.1
						c0.5-0.9,1.4-1.4,2.4-1.3c1.8,0,3.1,1.2,3.1,3.6V13.7z"/>
				</g>
			</g>
		</g>
	</g>
</g>
</svg>
