<svg xmlns="http://www.w3.org/2000/svg" width="163" height="49" viewBox="0 0 163 49">
    <g fill="none" fill-rule="evenodd">
        <g fill="#FFF">
            <g fill-rule="nonzero">
                <path d="M.27 22.59s4.27 7 15 7H23c1.935 4.1 5.038 7.538 8.92 9.88-1.481-3.148-2.57-6.466-3.24-9.88h32.58c-1.49 3-3.83 6.5-7.16 8.56-6.39 3.93-13.12 4.62-18.54 2.78-1.284-.343-2.522-.836-3.69-1.47 4 7 16.36 10.37 24.87 5.67 6.63-3.67 9.15-9.32 9.44-15.45l-.21-.09h.17s-4.27-7-15-7H28.22c.125-2.212.697-4.375 1.68-6.36 5.19-10.06 16.3-14.54 27.33-11-12.61-9-28-5.48-34 6.68-1.67 3.313-2.39 7.023-2.08 10.72H.27M74.84 17c.767.819 1.707 1.457 2.75 1.87 1.132.435 2.337.652 3.55.64.631.002 1.262-.031 1.89-.1.63-.06 1.2-.13 1.73-.22s1-.18 1.38-.27c.38-.09.71-.17.92-.24V10h-2.58v6.88c-.375.1-.756.178-1.14.23-.633.087-1.271.127-1.91.12-.939.023-1.87-.162-2.73-.54-.758-.342-1.425-.855-1.95-1.5-.546-.692-.944-1.488-1.17-2.34-.269-.977-.4-1.987-.39-3-.014-1.047.138-2.09.45-3.09.274-.85.705-1.64 1.27-2.33.543-.639 1.228-1.142 2-1.47.815-.347 1.694-.52 2.58-.51.88.002 1.758.116 2.61.34.728.166 1.423.45 2.06.84L87 1.5c-.194-.117-.394-.224-.6-.32-.37-.17-.75-.313-1.14-.43-.547-.163-1.105-.286-1.67-.37-.734-.115-1.477-.168-2.22-.16-1.184-.01-2.358.207-3.46.64-1.058.413-2.016 1.048-2.81 1.86-.83.863-1.48 1.883-1.91 3-.493 1.32-.733 2.721-.71 4.13-.024 1.392.19 2.779.63 4.1.358 1.126.948 2.165 1.73 3.05zM98.6 13.32c.42.55.84 1.14 1.27 1.77.43.63.85 1.3 1.27 2 .42.7.8 1.38 1.16 2h2.83c-.337-.743-.714-1.468-1.13-2.17-.46-.77-.92-1.5-1.38-2.2-.46-.7-.91-1.34-1.35-1.92-.44-.58-.79-1-1.08-1.4 1.113-.35 2.093-1.03 2.81-1.95.672-.91 1.024-2.018 1-3.15.127-1.706-.628-3.358-2-4.38C100.2.821 98.103.311 96 .46c-.75 0-1.57 0-2.47.09-.822.049-1.639.17-2.44.36v18.22h2.59V11.9h3.71c.42.39.79.87 1.21 1.42zm-3-3.55h-1.84v-7c.58 0 1.43-.08 2.53-.08.67-.002 1.339.051 2 .16.562.092 1.104.281 1.6.56.452.263.825.643 1.08 1.1.285.53.423 1.128.4 1.73.03.625-.107 1.247-.4 1.8-.262.459-.655.828-1.13 1.06-.566.272-1.175.445-1.8.51-.826.102-1.658.155-2.49.16h.05zM120.11 17.44c.587-.67 1.024-1.457 1.28-2.31.278-.934.416-1.905.41-2.88V.64h-2.59V12c.02.805-.088 1.609-.32 2.38-.177.598-.48 1.15-.89 1.62-.386.42-.866.742-1.4.94-.576.213-1.186.318-1.8.31-1.2.05-2.367-.404-3.22-1.25-.903-1.128-1.34-2.56-1.22-4V.64h-2.59v11.61c-.006.975.132 1.946.41 2.88.257.85.69 1.638 1.27 2.31.599.683 1.349 1.217 2.19 1.56 1.002.397 2.073.587 3.15.56 1.07.028 2.136-.163 3.13-.56.839-.348 1.587-.881 2.19-1.56zM128.85 12.28h2.05c1.174.01 2.347-.097 3.5-.32.927-.17 1.815-.509 2.62-1 .71-.452 1.283-1.088 1.66-1.84.401-.856.596-1.795.57-2.74.105-1.731-.684-3.395-2.09-4.41-1.8-1.098-3.895-1.614-6-1.48-.75 0-1.57 0-2.47.09-.822.049-1.639.17-2.44.36v18.19h2.59l.01-6.85zm0-9.48c.58 0 1.43-.08 2.53-.08.67 0 1.339.054 2 .16.577.092 1.133.289 1.64.58.464.266.85.649 1.12 1.11.29.54.432 1.147.41 1.76.026.637-.112 1.27-.4 1.84-.267.48-.666.871-1.15 1.13-.56.3-1.17.5-1.8.59-.798.117-1.604.174-2.41.17h-1.94V2.8zM144.36 17.09c.802.805 1.767 1.43 2.83 1.83 1.096.411 2.259.618 3.43.61 1.152.01 2.295-.198 3.37-.61 1.05-.404 2.001-1.028 2.79-1.83.835-.86 1.485-1.88 1.91-3 .947-2.71.947-5.66 0-8.37-.425-1.12-1.075-2.14-1.91-3-.78-.823-1.728-1.468-2.78-1.89-1.075-.412-2.218-.62-3.37-.61-1.171-.008-2.334.199-3.43.61-1.063.4-2.028 1.025-2.83 1.83-.841.856-1.495 1.878-1.92 3-.947 2.71-.947 5.66 0 8.37.414 1.143 1.065 2.186 1.91 3.06zm.52-10.27c.25-.849.665-1.64 1.22-2.33.51-.636 1.16-1.146 1.9-1.49 1.622-.694 3.458-.694 5.08 0 .744.346 1.4.855 1.92 1.49.552.69.963 1.482 1.21 2.33.573 1.996.573 4.114 0 6.11-.25.85-.66 1.645-1.21 2.34-.517.63-1.17 1.137-1.91 1.48-1.622.694-3.458.694-5.08 0-.746-.338-1.403-.844-1.92-1.48-.553-.695-.967-1.49-1.22-2.34-.56-1.998-.56-4.112 0-6.11h.01zM87 44.12c-.363.073-.73.12-1.1.14h-1.49c-.973.02-1.938-.171-2.83-.56-.78-.356-1.465-.89-2-1.56-.56-.715-.97-1.534-1.21-2.41-.283-1.012-.42-2.06-.41-3.11-.111-1.99.468-3.958 1.64-5.57 1.08-1.333 2.847-2 5.3-2 1.015-.006 2.026.136 3 .42.857.253 1.687.588 2.48 1l1.51-4.21c-.18-.11-.48-.27-.89-.47-.51-.237-1.039-.434-1.58-.59-.753-.215-1.517-.385-2.29-.51-.993-.148-1.996-.218-3-.21-1.556-.015-3.102.257-4.56.8-1.397.517-2.665 1.329-3.72 2.38-1.083 1.09-1.93 2.39-2.49 3.82-.636 1.652-.945 3.41-.91 5.18-.028 1.752.253 3.495.83 5.15.5 1.417 1.294 2.712 2.33 3.8 1.026 1.056 2.272 1.872 3.65 2.39 1.524.558 3.137.832 4.76.81 1.727.03 3.452-.115 5.15-.43 1.02-.183 2.023-.447 3-.79V36H87v8.12zM102.33 38.3L111.65 38.3 111.65 33.99 102.33 33.99 102.33 29.41 112.83 29.41 112.83 25 97.08 25 97.08 48.33 113.6 48.33 113.6 43.92 102.33 43.92zM133.78 43.16c-.51-.82-1-1.6-1.53-2.35s-1-1.42-1.48-2c1.28-.488 2.398-1.323 3.23-2.41 1.997-3.218 1.285-7.42-1.66-9.8-1.86-1.24-4.55-1.87-8-1.87-1 0-2.05 0-3.28.14-1.191.088-2.377.245-3.55.47v23h5.25v-8.53h2.59c.45.54.9 1.14 1.36 1.8.46.66.9 1.37 1.36 2.11.46.74.92 1.5 1.36 2.29.44.79.87 1.56 1.3 2.32h5.87c-.413-.847-.853-1.717-1.32-2.61-.51-.89-1-1.72-1.5-2.56zm-5.34-8.26c-1.333.586-2.788.84-4.24.74h-1.48v-6.33l.86-.06h1c1.313-.075 2.624.172 3.82.72.865.496 1.368 1.446 1.29 2.44.084.999-.399 1.96-1.25 2.49z" transform="translate(-242 -78) translate(242 78)"/>
                <path d="M159.73 41.36c-.787-2.127-1.557-4.127-2.31-6-.753-1.873-1.503-3.66-2.25-5.36-.75-1.7-1.5-3.35-2.27-5h-5c-.79 1.62-1.55 3.27-2.28 5-.73 1.73-1.48 3.48-2.23 5.37-.48 1.2-1 2.46-1.47 3.77h-7.52c1.479 2.01 3.7 3.346 6.17 3.71-.63 1.72-1.28 3.55-2 5.51h5.45c.26-.81.53-1.64.83-2.49.3-.85.59-1.71.88-2.56h9.11l.89 2.55c.3.86.58 1.69.84 2.5h5.62c-.84-2.54-1.67-4.87-2.46-7zM147 39.11c.36-1 .73-2 1.08-2.89.35-.89.68-1.76 1-2.53.32-.77.54-1.44.77-2 .23-.56.4-1 .51-1.38.14.33.33.79.55 1.37.22.58.49 1.25.8 2 .31.75.61 1.61.95 2.53.34.92.68 1.88 1 2.9H147z" transform="translate(-242 -78) translate(242 78)"/>
            </g>
        </g>
    </g>
</svg>
