<?xml version="1.0" encoding="utf-8"?>
<!-- Generator: Adobe Illustrator 24.3.0, SVG Export Plug-In . SVG Version: 6.00 Build 0)  -->
<svg version="1.1" id="Layer_1" xmlns="http://www.w3.org/2000/svg" xmlns:xlink="http://www.w3.org/1999/xlink" x="0px" y="0px"
	 viewBox="0 0 18.3 15.8" style="enable-background:new 0 0 18.3 15.8;" xml:space="preserve">
<style type="text/css">
	.st0{fill:#FFFFFF;}
</style>
<desc>Created with Sketch.</desc>
<g id="FOOTER" transform="translate(-1013.000000, -185.000000)">
	<g id="RIGHT">
		<g transform="translate(585.000000, 99.000000)">
			<g id="Coluna-Icones" transform="translate(341.000000, 86.000000)">
				<g id="Twitter_footer" transform="translate(87.000000, 0.000000)">
					<path class="st0" d="M15.1,5.3c0,0.1,0,0.3,0,0.4c0,3.9-2.9,8.3-8.3,8.3c-1.6,0-3.1-0.5-4.5-1.3c1.5,0.2,3.1-0.3,4.3-1.2
						c-1.3,0-2.4-0.8-2.7-2c0.2,0,0.4,0.1,0.6,0.1c0.3,0,0.5,0,0.8-0.1C3.8,9.1,2.9,7.9,2.9,6.5v0c0.4,0.2,0.9,0.4,1.3,0.4
						C2.9,5.9,2.5,4.2,3.3,2.9c1.5,1.8,3.7,2.9,6,3.1C9,4.7,9.6,3.3,10.8,2.7s2.6-0.4,3.5,0.6c0.7-0.1,1.3-0.4,1.9-0.7
						c-0.2,0.7-0.7,1.3-1.3,1.6C15.4,4.1,16,4,16.5,3.7C16.1,4.3,15.7,4.8,15.1,5.3z"/>
				</g>
			</g>
		</g>
	</g>
</g>
</svg>
